<svg width="48" height="48" viewBox="0 0 48 48" fill="none" xmlns="http://www.w3.org/2000/svg">
<rect width="48" height="48" rx="6" fill="#204F09"/>
<path d="M23.7791 39.45C20.9891 39.45 18.6191 38.97 16.6691 38.01C14.7491 37.02 13.2791 35.625 12.2591 33.825C11.2391 31.995 10.6691 29.805 10.5491 27.255C10.5191 26.025 10.5041 24.705 10.5041 23.295C10.5041 21.885 10.5191 20.535 10.5491 19.245C10.6691 16.725 11.2391 14.55 12.2591 12.72C13.3091 10.89 14.7941 9.495 16.7141 8.535C18.6641 7.545 21.0191 7.05 23.7791 7.05C25.8191 7.05 27.6491 7.32 29.2691 7.86C30.8891 8.4 32.2691 9.15 33.4091 10.11C34.5491 11.04 35.4341 12.135 36.0641 13.395C36.6941 14.655 37.0241 16.02 37.0541 17.49C37.0841 17.76 36.9941 17.985 36.7841 18.165C36.6041 18.345 36.3791 18.435 36.1091 18.435H31.8341C31.5041 18.435 31.2341 18.36 31.0241 18.21C30.8141 18.03 30.6641 17.745 30.5741 17.355C30.0941 15.375 29.2691 14.025 28.0991 13.305C26.9291 12.585 25.4741 12.225 23.7341 12.225C21.7241 12.225 20.1191 12.795 18.9191 13.935C17.7191 15.045 17.0741 16.89 16.9841 19.47C16.8941 21.93 16.8941 24.45 16.9841 27.03C17.0741 29.61 17.7191 31.47 18.9191 32.61C20.1191 33.72 21.7241 34.275 23.7341 34.275C25.4741 34.275 26.9291 33.915 28.0991 33.195C29.2691 32.445 30.0941 31.095 30.5741 29.145C30.6641 28.725 30.8141 28.44 31.0241 28.29C31.2341 28.14 31.5041 28.065 31.8341 28.065H36.1091C36.3791 28.065 36.6041 28.155 36.7841 28.335C36.9941 28.515 37.0841 28.74 37.0541 29.01C37.0241 30.48 36.6941 31.845 36.0641 33.105C35.4341 34.365 34.5491 35.475 33.4091 36.435C32.2691 37.365 30.8891 38.1 29.2691 38.64C27.6491 39.18 25.8191 39.45 23.7791 39.45Z" fill="white"/>
</svg>
