<svg width="26" height="27" viewBox="0 0 26 27" fill="none" xmlns="http://www.w3.org/2000/svg">
<path d="M1.58014e-07 3.375C2.36267e-07 2.47989 0.342411 1.62145 0.951905 0.988516C1.5614 0.35558 2.38805 -1.56874e-07 3.25 -8.15197e-08L22.75 1.62322e-06C23.612 1.69858e-06 24.4386 0.355582 25.0481 0.988518C25.6576 1.62145 26 2.4799 26 3.375L26 23.625C26 24.5201 25.6576 25.3786 25.0481 26.0115C24.4386 26.6444 23.612 27 22.75 27L3.25 27C2.38804 27 1.5614 26.6444 0.951902 26.0115C0.342409 25.3785 -1.69055e-06 24.5201 -1.6123e-06 23.625L1.58014e-07 3.375ZM7.3125 14.3437L16.7261 14.3438L13.2373 17.9651C13.0847 18.1236 12.999 18.3384 12.999 18.5625C12.999 18.7866 13.0847 19.0014 13.2373 19.1599C13.3898 19.3183 13.5967 19.4073 13.8125 19.4073C14.0283 19.4073 14.2352 19.3183 14.3878 19.1599L19.2628 14.0974C19.3384 14.019 19.3984 13.9259 19.4394 13.8234C19.4804 13.7209 19.5015 13.611 19.5015 13.5C19.5015 13.389 19.4804 13.2791 19.4394 13.1766C19.3984 13.0741 19.3384 12.981 19.2628 12.9026L14.3878 7.84013C14.2352 7.68169 14.0283 7.59268 13.8125 7.59268C13.5967 7.59268 13.3898 7.68169 13.2373 7.84012C13.0847 7.99856 12.999 8.21344 12.999 8.4375C12.999 8.66156 13.0847 8.87644 13.2373 9.03487L16.7261 12.6563L7.3125 12.6562C7.09701 12.6562 6.89035 12.7451 6.73798 12.9034C6.5856 13.0616 6.5 13.2762 6.5 13.5C6.5 13.7238 6.5856 13.9384 6.73798 14.0966C6.89035 14.2549 7.09701 14.3437 7.3125 14.3437Z" fill="black"/>
</svg>
