<svg width="125" height="17" viewBox="0 0 125 17" fill="none" xmlns="http://www.w3.org/2000/svg">
<path d="M6.426 13.18C5.286 13.18 4.308 12.994 3.492 12.622C2.688 12.25 2.058 11.704 1.602 10.984C1.158 10.264 0.912 9.37 0.864 8.302C0.852 7.81 0.846 7.282 0.846 6.718C0.846 6.154 0.852 5.614 0.864 5.098C0.912 4.054 1.164 3.172 1.62 2.452C2.076 1.72 2.712 1.168 3.528 0.795999C4.344 0.411999 5.31 0.219999 6.426 0.219999C7.218 0.219999 7.95 0.321999 8.622 0.526C9.294 0.717999 9.882 1.006 10.386 1.39C10.89 1.762 11.28 2.218 11.556 2.758C11.844 3.286 11.994 3.886 12.006 4.558C12.018 4.666 11.982 4.756 11.898 4.828C11.826 4.9 11.736 4.936 11.628 4.936H9.198C9.042 4.936 8.922 4.906 8.838 4.846C8.754 4.774 8.682 4.648 8.622 4.468C8.454 3.832 8.178 3.4 7.794 3.172C7.422 2.932 6.96 2.812 6.408 2.812C5.748 2.812 5.226 2.998 4.842 3.37C4.458 3.73 4.248 4.336 4.212 5.188C4.176 6.172 4.176 7.18 4.212 8.212C4.248 9.064 4.458 9.676 4.842 10.048C5.226 10.408 5.748 10.588 6.408 10.588C6.96 10.588 7.428 10.468 7.812 10.228C8.196 9.988 8.466 9.556 8.622 8.932C8.67 8.752 8.736 8.632 8.82 8.572C8.916 8.5 9.042 8.464 9.198 8.464H11.628C11.736 8.464 11.826 8.5 11.898 8.572C11.982 8.644 12.018 8.734 12.006 8.842C11.994 9.514 11.844 10.12 11.556 10.66C11.28 11.188 10.89 11.644 10.386 12.028C9.882 12.4 9.294 12.688 8.622 12.892C7.95 13.084 7.218 13.18 6.426 13.18ZM77.9514 13.18C76.8114 13.18 75.8334 12.994 75.0174 12.622C74.2134 12.25 73.5834 11.704 73.1274 10.984C72.6834 10.264 72.4374 9.37 72.3894 8.302C72.3774 7.81 72.3714 7.282 72.3714 6.718C72.3714 6.154 72.3774 5.614 72.3894 5.098C72.4374 4.054 72.6894 3.172 73.1454 2.452C73.6014 1.72 74.2374 1.168 75.0534 0.795999C75.8694 0.411999 76.8354 0.219999 77.9514 0.219999C78.7434 0.219999 79.4754 0.321999 80.1474 0.526C80.8194 0.717999 81.4074 1.006 81.9114 1.39C82.4154 1.762 82.8054 2.218 83.0814 2.758C83.3694 3.286 83.5194 3.886 83.5314 4.558C83.5434 4.666 83.5074 4.756 83.4234 4.828C83.3514 4.9 83.2614 4.936 83.1534 4.936H80.7234C80.5674 4.936 80.4474 4.906 80.3634 4.846C80.2794 4.774 80.2074 4.648 80.1474 4.468C79.9794 3.832 79.7034 3.4 79.3194 3.172C78.9474 2.932 78.4854 2.812 77.9334 2.812C77.2734 2.812 76.7514 2.998 76.3674 3.37C75.9834 3.73 75.7734 4.336 75.7374 5.188C75.7014 6.172 75.7014 7.18 75.7374 8.212C75.7734 9.064 75.9834 9.676 76.3674 10.048C76.7514 10.408 77.2734 10.588 77.9334 10.588C78.4854 10.588 78.9534 10.468 79.3374 10.228C79.7214 9.988 79.9914 9.556 80.1474 8.932C80.1954 8.752 80.2614 8.632 80.3454 8.572C80.4414 8.5 80.5674 8.464 80.7234 8.464H83.1534C83.2614 8.464 83.3514 8.5 83.4234 8.572C83.5074 8.644 83.5434 8.734 83.5314 8.842C83.5194 9.514 83.3694 10.12 83.0814 10.66C82.8054 11.188 82.4154 11.644 81.9114 12.028C81.4074 12.4 80.8194 12.688 80.1474 12.892C79.4754 13.084 78.7434 13.18 77.9514 13.18ZM89.7061 13C89.5741 13 89.4661 12.958 89.3821 12.874C89.2981 12.79 89.2561 12.682 89.2561 12.55V0.85C89.2561 0.717999 89.2981 0.609999 89.3821 0.526C89.4661 0.441999 89.5741 0.399999 89.7061 0.399999H94.7461C95.7421 0.399999 96.6061 0.555999 97.3381 0.868C98.0821 1.168 98.6581 1.624 99.0661 2.236C99.4861 2.848 99.6961 3.622 99.6961 4.558C99.6961 5.482 99.4861 6.244 99.0661 6.844C98.6581 7.444 98.0821 7.888 97.3381 8.176C96.6061 8.464 95.7421 8.608 94.7461 8.608H92.6041V12.55C92.6041 12.682 92.5561 12.79 92.4601 12.874C92.3761 12.958 92.2681 13 92.1361 13H89.7061ZM92.5501 6.124H94.6561C95.1721 6.124 95.5801 5.992 95.8801 5.728C96.1921 5.464 96.3481 5.062 96.3481 4.522C96.3481 4.066 96.2161 3.682 95.9521 3.37C95.6881 3.058 95.2561 2.902 94.6561 2.902H92.5501V6.124ZM101.87 13C101.738 13 101.63 12.958 101.546 12.874C101.462 12.79 101.42 12.682 101.42 12.55V0.85C101.42 0.717999 101.462 0.609999 101.546 0.526C101.63 0.441999 101.738 0.399999 101.87 0.399999H106.766C108.314 0.399999 109.532 0.759999 110.42 1.48C111.32 2.188 111.77 3.196 111.77 4.504C111.77 5.356 111.56 6.076 111.14 6.664C110.732 7.252 110.192 7.696 109.52 7.996L112.004 12.424C112.04 12.496 112.058 12.562 112.058 12.622C112.058 12.718 112.016 12.808 111.932 12.892C111.86 12.964 111.77 13 111.662 13H109.286C109.058 13 108.89 12.946 108.782 12.838C108.674 12.718 108.596 12.61 108.548 12.514L106.496 8.554H104.642V12.55C104.642 12.682 104.6 12.79 104.516 12.874C104.432 12.958 104.324 13 104.192 13H101.87ZM104.642 6.016H106.73C107.294 6.016 107.714 5.878 107.99 5.602C108.278 5.326 108.422 4.948 108.422 4.468C108.422 4 108.284 3.622 108.008 3.334C107.744 3.046 107.318 2.902 106.73 2.902H104.642V6.016ZM119.013 13.18C117.909 13.18 116.949 13 116.133 12.64C115.317 12.28 114.681 11.74 114.225 11.02C113.769 10.288 113.517 9.376 113.469 8.284C113.457 7.768 113.451 7.252 113.451 6.736C113.451 6.22 113.457 5.698 113.469 5.17C113.517 4.09 113.769 3.184 114.225 2.452C114.693 1.708 115.335 1.15 116.151 0.778C116.967 0.405999 117.921 0.219999 119.013 0.219999C120.093 0.219999 121.041 0.405999 121.857 0.778C122.685 1.15 123.333 1.708 123.801 2.452C124.269 3.184 124.521 4.09 124.557 5.17C124.581 5.698 124.593 6.22 124.593 6.736C124.593 7.252 124.581 7.768 124.557 8.284C124.509 9.376 124.257 10.288 123.801 11.02C123.345 11.74 122.709 12.28 121.893 12.64C121.077 13 120.117 13.18 119.013 13.18ZM119.013 10.588C119.649 10.588 120.165 10.396 120.561 10.012C120.969 9.628 121.185 9.016 121.209 8.176C121.233 7.648 121.245 7.15 121.245 6.682C121.245 6.214 121.233 5.728 121.209 5.224C121.185 4.66 121.077 4.204 120.885 3.856C120.705 3.496 120.453 3.232 120.129 3.064C119.805 2.896 119.433 2.812 119.013 2.812C118.605 2.812 118.239 2.896 117.915 3.064C117.591 3.232 117.333 3.496 117.141 3.856C116.949 4.204 116.841 4.66 116.817 5.224C116.805 5.728 116.799 6.214 116.799 6.682C116.799 7.15 116.805 7.648 116.817 8.176C116.853 9.016 117.069 9.628 117.465 10.012C117.861 10.396 118.377 10.588 119.013 10.588Z" fill="#204F09"/>
<path d="M18.0207 13.18C16.6047 13.18 15.4767 12.796 14.6367 12.028C13.7967 11.26 13.3587 10.12 13.3227 8.608C13.3227 8.524 13.3227 8.416 13.3227 8.284C13.3227 8.152 13.3227 8.05 13.3227 7.978C13.3587 7.03 13.5687 6.22 13.9527 5.548C14.3487 4.864 14.8887 4.348 15.5727 4C16.2687 3.64 17.0787 3.46 18.0027 3.46C19.0587 3.46 19.9287 3.67 20.6127 4.09C21.3087 4.51 21.8307 5.08 22.1787 5.8C22.5267 6.52 22.7007 7.342 22.7007 8.266V8.698C22.7007 8.83 22.6527 8.938 22.5567 9.022C22.4727 9.106 22.3707 9.148 22.2507 9.148H16.4907C16.4907 9.16 16.4907 9.178 16.4907 9.202C16.4907 9.226 16.4907 9.25 16.4907 9.274C16.5027 9.622 16.5627 9.94 16.6707 10.228C16.7787 10.516 16.9467 10.744 17.1747 10.912C17.4027 11.08 17.6787 11.164 18.0027 11.164C18.2427 11.164 18.4407 11.128 18.5967 11.056C18.7647 10.972 18.9027 10.882 19.0107 10.786C19.1187 10.678 19.2027 10.588 19.2627 10.516C19.3707 10.396 19.4547 10.324 19.5147 10.3C19.5867 10.264 19.6947 10.246 19.8387 10.246H22.0707C22.1907 10.246 22.2867 10.282 22.3587 10.354C22.4427 10.414 22.4787 10.504 22.4667 10.624C22.4547 10.828 22.3527 11.074 22.1607 11.362C21.9687 11.65 21.6867 11.938 21.3147 12.226C20.9547 12.502 20.4987 12.73 19.9467 12.91C19.3947 13.09 18.7527 13.18 18.0207 13.18ZM16.4907 7.366H19.5327V7.33C19.5327 6.946 19.4727 6.61 19.3527 6.322C19.2447 6.034 19.0707 5.812 18.8307 5.656C18.6027 5.5 18.3267 5.422 18.0027 5.422C17.6787 5.422 17.4027 5.5 17.1747 5.656C16.9587 5.812 16.7907 6.034 16.6707 6.322C16.5507 6.61 16.4907 6.946 16.4907 7.33V7.366ZM24.8382 16.42C24.7062 16.42 24.5982 16.378 24.5142 16.294C24.4302 16.21 24.3882 16.102 24.3882 15.97V4.09C24.3882 3.958 24.4302 3.85 24.5142 3.766C24.5982 3.682 24.7062 3.64 24.8382 3.64H26.8722C26.9922 3.64 27.0942 3.682 27.1782 3.766C27.2742 3.85 27.3222 3.958 27.3222 4.09V4.756C27.5982 4.384 27.9642 4.078 28.4202 3.838C28.8762 3.586 29.4402 3.46 30.1122 3.46C30.7122 3.46 31.2402 3.556 31.6962 3.748C32.1522 3.928 32.5422 4.198 32.8662 4.558C33.1902 4.918 33.4422 5.356 33.6222 5.872C33.8142 6.388 33.9222 6.982 33.9462 7.654C33.9582 7.894 33.9642 8.116 33.9642 8.32C33.9642 8.524 33.9582 8.746 33.9462 8.986C33.9222 9.634 33.8202 10.216 33.6402 10.732C33.4602 11.248 33.2082 11.686 32.8842 12.046C32.5602 12.406 32.1642 12.688 31.6962 12.892C31.2402 13.084 30.7122 13.18 30.1122 13.18C29.5242 13.18 29.0082 13.078 28.5642 12.874C28.1322 12.658 27.7722 12.358 27.4842 11.974V15.97C27.4842 16.102 27.4422 16.21 27.3582 16.294C27.2742 16.378 27.1662 16.42 27.0342 16.42H24.8382ZM29.1402 10.768C29.5482 10.768 29.8662 10.684 30.0942 10.516C30.3222 10.348 30.4842 10.12 30.5802 9.832C30.6882 9.544 30.7542 9.226 30.7782 8.878C30.8022 8.506 30.8022 8.134 30.7782 7.762C30.7542 7.414 30.6882 7.096 30.5802 6.808C30.4842 6.52 30.3222 6.292 30.0942 6.124C29.8662 5.956 29.5482 5.872 29.1402 5.872C28.7442 5.872 28.4262 5.962 28.1862 6.142C27.9462 6.31 27.7722 6.532 27.6642 6.808C27.5562 7.084 27.4962 7.384 27.4842 7.708C27.4722 7.936 27.4662 8.158 27.4662 8.374C27.4662 8.59 27.4722 8.818 27.4842 9.058C27.4962 9.358 27.5622 9.64 27.6822 9.904C27.8022 10.156 27.9822 10.366 28.2222 10.534C28.4622 10.69 28.7682 10.768 29.1402 10.768ZM36.1936 13C36.0616 13 35.9536 12.958 35.8696 12.874C35.7856 12.79 35.7436 12.682 35.7436 12.55V4.09C35.7436 3.958 35.7856 3.85 35.8696 3.766C35.9536 3.682 36.0616 3.64 36.1936 3.64H40.4056C41.8336 3.64 42.8716 3.88 43.5196 4.36C44.1796 4.84 44.5096 5.488 44.5096 6.304C44.5096 6.76 44.4196 7.132 44.2396 7.42C44.0596 7.708 43.8196 7.948 43.5196 8.14C43.9156 8.344 44.2276 8.626 44.4556 8.986C44.6836 9.346 44.7976 9.76 44.7976 10.228C44.7976 11.092 44.4616 11.77 43.7896 12.262C43.1176 12.754 42.0736 13 40.6576 13H36.1936ZM38.6596 11.074H40.4956C40.8676 11.074 41.1676 11.008 41.3956 10.876C41.6236 10.732 41.7376 10.504 41.7376 10.192C41.7376 9.88 41.6296 9.658 41.4136 9.526C41.2096 9.382 40.9036 9.31 40.4956 9.31H38.6596V11.074ZM38.6596 7.294H40.4596C40.8316 7.294 41.1256 7.222 41.3416 7.078C41.5696 6.922 41.6836 6.694 41.6836 6.394C41.6836 6.082 41.5696 5.866 41.3416 5.746C41.1256 5.626 40.8316 5.566 40.4596 5.566H38.6596V7.294ZM47.0917 13C46.9717 13 46.8697 12.958 46.7857 12.874C46.7017 12.79 46.6597 12.688 46.6597 12.568V4.09C46.6597 3.958 46.7017 3.85 46.7857 3.766C46.8697 3.682 46.9777 3.64 47.1097 3.64H49.2337C49.3537 3.64 49.4557 3.682 49.5397 3.766C49.6357 3.85 49.6837 3.958 49.6837 4.09V10.66L48.8737 10.264L53.3197 3.928C53.3797 3.844 53.4517 3.778 53.5357 3.73C53.6197 3.67 53.7157 3.64 53.8237 3.64H55.7497C55.8697 3.64 55.9717 3.682 56.0557 3.766C56.1397 3.85 56.1817 3.952 56.1817 4.072V12.55C56.1817 12.682 56.1397 12.79 56.0557 12.874C55.9717 12.958 55.8637 13 55.7317 13H53.6077C53.4757 13 53.3677 12.958 53.2837 12.874C53.1997 12.79 53.1577 12.682 53.1577 12.55V6.178L53.9857 6.34L49.5037 12.712C49.4557 12.796 49.3897 12.868 49.3057 12.928C49.2217 12.976 49.1197 13 48.9997 13H47.0917ZM62.4402 13.18C61.5522 13.18 60.7662 13.018 60.0822 12.694C59.3982 12.37 58.8522 11.902 58.4442 11.29C58.0482 10.666 57.8322 9.922 57.7962 9.058C57.7842 8.866 57.7782 8.626 57.7782 8.338C57.7782 8.038 57.7842 7.792 57.7962 7.6C57.8322 6.724 58.0482 5.98 58.4442 5.368C58.8402 4.744 59.3802 4.27 60.0642 3.946C60.7602 3.622 61.5522 3.46 62.4402 3.46C63.2682 3.46 63.9762 3.58 64.5642 3.82C65.1522 4.048 65.6322 4.336 66.0042 4.684C66.3762 5.032 66.6522 5.392 66.8322 5.764C67.0242 6.124 67.1262 6.442 67.1382 6.718C67.1502 6.838 67.1082 6.946 67.0122 7.042C66.9162 7.126 66.8082 7.168 66.6882 7.168H64.4022C64.2702 7.168 64.1682 7.138 64.0962 7.078C64.0242 7.018 63.9582 6.928 63.8982 6.808C63.7542 6.436 63.5682 6.172 63.3402 6.016C63.1242 5.86 62.8422 5.782 62.4942 5.782C62.0142 5.782 61.6422 5.938 61.3782 6.25C61.1262 6.562 60.9882 7.042 60.9642 7.69C60.9522 8.17 60.9522 8.596 60.9642 8.968C60.9882 9.628 61.1262 10.108 61.3782 10.408C61.6422 10.708 62.0142 10.858 62.4942 10.858C62.8662 10.858 63.1602 10.78 63.3762 10.624C63.5922 10.468 63.7662 10.204 63.8982 9.832C63.9582 9.712 64.0242 9.622 64.0962 9.562C64.1682 9.502 64.2702 9.472 64.4022 9.472H66.6882C66.8082 9.472 66.9162 9.52 67.0122 9.616C67.1082 9.7 67.1502 9.802 67.1382 9.922C67.1262 10.126 67.0662 10.366 66.9582 10.642C66.8502 10.906 66.6822 11.188 66.4542 11.488C66.2262 11.788 65.9262 12.07 65.5542 12.334C65.1942 12.586 64.7562 12.79 64.2402 12.946C63.7242 13.102 63.1242 13.18 62.4402 13.18Z" fill="black"/>
</svg>
