<svg width="18" height="13" viewBox="0 0 18 13" fill="none" xmlns="http://www.w3.org/2000/svg">
<path d="M0.574002 1.786L8.074 5.815C8.326 5.95 8.652 6.014 8.98 6.014C9.308 6.014 9.634 5.95 9.886 5.815L17.386 1.786C17.875 1.523 18.337 0.5 17.44 0.5H0.521002C-0.375998 0.5 0.0860016 1.523 0.574002 1.786ZM17.613 3.989L9.886 8.016C9.546 8.194 9.308 8.215 8.98 8.215C8.652 8.215 8.414 8.194 8.074 8.016C7.734 7.838 0.941002 4.277 0.386002 3.988C-0.00399834 3.784 1.61606e-06 4.023 1.61606e-06 4.207V11.5C1.61606e-06 11.92 0.566002 12.5 1 12.5H17C17.434 12.5 18 11.92 18 11.5V4.208C18 4.024 18.004 3.785 17.613 3.989Z" fill="black"/>
</svg>
