<svg width="18" height="19" viewBox="0 0 18 19" fill="none" xmlns="http://www.w3.org/2000/svg">
<path d="M11.06 5.50005L10.85 5.30005C10.33 4.76005 10.42 4.51005 10.93 4.00005L13.65 1.25005C14.46 0.430049 14.61 0.0400485 15.38 0.770048L15.59 0.970048L11.06 5.50005ZM11.59 5.95005L15.99 1.55005C16.69 2.49005 18.33 5.02005 17.52 6.89005C16.79 8.56005 16.43 8.64005 15.52 9.89005C13.67 12 11.34 14.26 9.51998 15.96C8.25998 16.87 8.20997 17.29 6.51997 17.96C4.71997 18.67 2.11998 17.07 1.13997 16.4L5.53997 12L6.71997 13.62C7.05997 14.08 7.91998 13.56 8.51998 12.96C9.55998 11.91 11.7 9.78005 12.52 8.89005C13.11 8.30005 13.64 7.44005 13.18 7.09005L11.59 5.95005ZM0.569975 16L0.359975 15.79C-0.320025 15.05 0.0699748 14.89 0.879975 14.09L3.61997 11.37C4.12997 10.88 4.36997 10.77 4.88997 11.26L5.08997 11.47L0.569975 16Z" fill="black"/>
</svg>
